<mxfile host="app.diagrams.net" modified="2024-05-14T08:52:36.097Z" agent="Mozilla/5.0 (Macintosh; Intel Mac OS X 10_15_7) AppleWebKit/537.36 (KHTML, like Gecko) Chrome/124.0.0.0 Safari/537.36" etag="ZTn6TSCcXtjLfNFUAtlO" version="24.4.0" type="github">
  <diagram name="Page-1" id="8ekUl6FQjfxKHmdwo-NY">
    <mxGraphModel dx="954" dy="501" grid="1" gridSize="10" guides="1" tooltips="1" connect="1" arrows="1" fold="1" page="1" pageScale="1" pageWidth="827" pageHeight="1169" math="0" shadow="0">
      <root>
        <mxCell id="0" />
        <mxCell id="1" parent="0" />
        <mxCell id="TdxI0WIAlk2yPbmJBlpO-2" value="Android Application" style="shape=umlLifeline;perimeter=lifelinePerimeter;whiteSpace=wrap;container=1;dropTarget=0;collapsible=0;recursiveResize=0;outlineConnect=0;portConstraint=eastwest;newEdgeStyle={&quot;edgeStyle&quot;:&quot;elbowEdgeStyle&quot;,&quot;elbow&quot;:&quot;vertical&quot;,&quot;curved&quot;:0,&quot;rounded&quot;:0};size=65;" vertex="1" parent="1">
          <mxGeometry x="20" y="20" width="162" height="1066" as="geometry" />
        </mxCell>
        <mxCell id="TdxI0WIAlk2yPbmJBlpO-3" value="Reboot Receiver" style="shape=umlLifeline;perimeter=lifelinePerimeter;whiteSpace=wrap;container=1;dropTarget=0;collapsible=0;recursiveResize=0;outlineConnect=0;portConstraint=eastwest;newEdgeStyle={&quot;edgeStyle&quot;:&quot;elbowEdgeStyle&quot;,&quot;elbow&quot;:&quot;vertical&quot;,&quot;curved&quot;:0,&quot;rounded&quot;:0};size=65;" vertex="1" parent="1">
          <mxGeometry x="266" y="20" width="150" height="1066" as="geometry" />
        </mxCell>
        <mxCell id="TdxI0WIAlk2yPbmJBlpO-4" value="Permission Activity" style="shape=umlLifeline;perimeter=lifelinePerimeter;whiteSpace=wrap;container=1;dropTarget=0;collapsible=0;recursiveResize=0;outlineConnect=0;portConstraint=eastwest;newEdgeStyle={&quot;edgeStyle&quot;:&quot;elbowEdgeStyle&quot;,&quot;elbow&quot;:&quot;vertical&quot;,&quot;curved&quot;:0,&quot;rounded&quot;:0};size=65;" vertex="1" parent="1">
          <mxGeometry x="466" y="20" width="157" height="1066" as="geometry" />
        </mxCell>
        <mxCell id="TdxI0WIAlk2yPbmJBlpO-5" value="Config Service" style="shape=umlLifeline;perimeter=lifelinePerimeter;whiteSpace=wrap;container=1;dropTarget=0;collapsible=0;recursiveResize=0;outlineConnect=0;portConstraint=eastwest;newEdgeStyle={&quot;edgeStyle&quot;:&quot;elbowEdgeStyle&quot;,&quot;elbow&quot;:&quot;vertical&quot;,&quot;curved&quot;:0,&quot;rounded&quot;:0};size=65;" vertex="1" parent="1">
          <mxGeometry x="673" y="20" width="150" height="1066" as="geometry" />
        </mxCell>
        <mxCell id="TdxI0WIAlk2yPbmJBlpO-6" value="Telephony Callback" style="shape=umlLifeline;perimeter=lifelinePerimeter;whiteSpace=wrap;container=1;dropTarget=0;collapsible=0;recursiveResize=0;outlineConnect=0;portConstraint=eastwest;newEdgeStyle={&quot;edgeStyle&quot;:&quot;elbowEdgeStyle&quot;,&quot;elbow&quot;:&quot;vertical&quot;,&quot;curved&quot;:0,&quot;rounded&quot;:0};size=65;" vertex="1" parent="1">
          <mxGeometry x="930" y="20" width="161" height="1066" as="geometry" />
        </mxCell>
        <mxCell id="TdxI0WIAlk2yPbmJBlpO-7" value="loop" style="shape=umlFrame;dashed=1;pointerEvents=0;dropTarget=0;strokeColor=#B3B3B3;height=20;width=40" vertex="1" parent="1">
          <mxGeometry x="610" y="335" width="276" height="171" as="geometry" />
        </mxCell>
        <mxCell id="TdxI0WIAlk2yPbmJBlpO-8" value="[Fetch Default Config&#xa;Values]" style="text;strokeColor=none;fillColor=none;align=center;verticalAlign=middle;whiteSpace=wrap;" vertex="1" parent="TdxI0WIAlk2yPbmJBlpO-7">
          <mxGeometry x="40" width="236" height="20" as="geometry" />
        </mxCell>
        <mxCell id="TdxI0WIAlk2yPbmJBlpO-9" value="alt" style="shape=umlFrame;dashed=1;pointerEvents=0;dropTarget=0;strokeColor=#B3B3B3;height=20;width=30" vertex="1" parent="1">
          <mxGeometry x="91" y="735" width="800" height="246" as="geometry" />
        </mxCell>
        <mxCell id="TdxI0WIAlk2yPbmJBlpO-10" value="[Values Match]" style="text;strokeColor=none;fillColor=none;align=center;verticalAlign=middle;whiteSpace=wrap;" vertex="1" parent="TdxI0WIAlk2yPbmJBlpO-9">
          <mxGeometry x="30" width="770" height="20" as="geometry" />
        </mxCell>
        <mxCell id="TdxI0WIAlk2yPbmJBlpO-11" value="[Values Mismatch]" style="shape=line;dashed=1;whiteSpace=wrap;verticalAlign=top;labelPosition=center;verticalLabelPosition=middle;align=center;strokeColor=#B3B3B3;" vertex="1" parent="TdxI0WIAlk2yPbmJBlpO-9">
          <mxGeometry y="98" width="800" height="4" as="geometry" />
        </mxCell>
        <mxCell id="TdxI0WIAlk2yPbmJBlpO-12" value="loop" style="shape=umlFrame;dashed=1;pointerEvents=0;dropTarget=0;strokeColor=#B3B3B3;height=20;width=40" vertex="1" parent="1">
          <mxGeometry x="81" y="564" width="939" height="427" as="geometry" />
        </mxCell>
        <mxCell id="TdxI0WIAlk2yPbmJBlpO-13" value="[On Signal Strength Call]" style="text;strokeColor=none;fillColor=none;align=center;verticalAlign=middle;whiteSpace=wrap;" vertex="1" parent="TdxI0WIAlk2yPbmJBlpO-12">
          <mxGeometry x="40" width="899" height="20" as="geometry" />
        </mxCell>
        <mxCell id="TdxI0WIAlk2yPbmJBlpO-14" value="Start reboot receiver" style="verticalAlign=bottom;endArrow=block;edgeStyle=elbowEdgeStyle;elbow=vertical;curved=0;rounded=0;" edge="1" parent="1" source="TdxI0WIAlk2yPbmJBlpO-2" target="TdxI0WIAlk2yPbmJBlpO-3">
          <mxGeometry relative="1" as="geometry">
            <Array as="points">
              <mxPoint x="231" y="123" />
            </Array>
          </mxGeometry>
        </mxCell>
        <mxCell id="TdxI0WIAlk2yPbmJBlpO-15" value="Reboot receiver started" style="verticalAlign=bottom;endArrow=block;edgeStyle=elbowEdgeStyle;elbow=vertical;curved=0;rounded=0;dashed=1;dashPattern=2 3;" edge="1" parent="1" source="TdxI0WIAlk2yPbmJBlpO-3" target="TdxI0WIAlk2yPbmJBlpO-2">
          <mxGeometry relative="1" as="geometry">
            <Array as="points">
              <mxPoint x="231" y="171" />
            </Array>
          </mxGeometry>
        </mxCell>
        <mxCell id="TdxI0WIAlk2yPbmJBlpO-16" value="Call transparent activity" style="verticalAlign=bottom;endArrow=block;edgeStyle=elbowEdgeStyle;elbow=vertical;curved=0;rounded=0;" edge="1" parent="1" source="TdxI0WIAlk2yPbmJBlpO-2" target="TdxI0WIAlk2yPbmJBlpO-4">
          <mxGeometry relative="1" as="geometry">
            <Array as="points">
              <mxPoint x="333" y="219" />
            </Array>
          </mxGeometry>
        </mxCell>
        <mxCell id="TdxI0WIAlk2yPbmJBlpO-17" value="Permission granted?" style="verticalAlign=bottom;endArrow=block;edgeStyle=elbowEdgeStyle;elbow=vertical;curved=0;rounded=0;dashed=1;dashPattern=2 3;" edge="1" parent="1" source="TdxI0WIAlk2yPbmJBlpO-4" target="TdxI0WIAlk2yPbmJBlpO-2">
          <mxGeometry relative="1" as="geometry">
            <Array as="points">
              <mxPoint x="333" y="267" />
            </Array>
          </mxGeometry>
        </mxCell>
        <mxCell id="TdxI0WIAlk2yPbmJBlpO-18" value="Start service" style="verticalAlign=bottom;endArrow=block;edgeStyle=elbowEdgeStyle;elbow=vertical;curved=0;rounded=0;" edge="1" parent="1" source="TdxI0WIAlk2yPbmJBlpO-2" target="TdxI0WIAlk2yPbmJBlpO-5">
          <mxGeometry relative="1" as="geometry">
            <Array as="points">
              <mxPoint x="435" y="315" />
            </Array>
          </mxGeometry>
        </mxCell>
        <mxCell id="TdxI0WIAlk2yPbmJBlpO-19" value="Get default config values from XML" style="curved=1;rounded=0;" edge="1" parent="1" source="TdxI0WIAlk2yPbmJBlpO-5" target="TdxI0WIAlk2yPbmJBlpO-5">
          <mxGeometry relative="1" as="geometry">
            <Array as="points">
              <mxPoint x="798" y="426" />
              <mxPoint x="798" y="456" />
            </Array>
          </mxGeometry>
        </mxCell>
        <mxCell id="TdxI0WIAlk2yPbmJBlpO-20" value="Register telephony callback" style="verticalAlign=bottom;endArrow=block;edgeStyle=elbowEdgeStyle;elbow=vertical;curved=0;rounded=0;" edge="1" parent="1" source="TdxI0WIAlk2yPbmJBlpO-2" target="TdxI0WIAlk2yPbmJBlpO-6">
          <mxGeometry relative="1" as="geometry">
            <Array as="points">
              <mxPoint x="566" y="544" />
            </Array>
          </mxGeometry>
        </mxCell>
        <mxCell id="TdxI0WIAlk2yPbmJBlpO-21" value="Fetch carrier config values" style="verticalAlign=bottom;endArrow=block;edgeStyle=elbowEdgeStyle;elbow=vertical;curved=0;rounded=0;" edge="1" parent="1" source="TdxI0WIAlk2yPbmJBlpO-6" target="TdxI0WIAlk2yPbmJBlpO-5">
          <mxGeometry relative="1" as="geometry">
            <Array as="points">
              <mxPoint x="889" y="637" />
            </Array>
          </mxGeometry>
        </mxCell>
        <mxCell id="TdxI0WIAlk2yPbmJBlpO-22" value="Compare with default values" style="curved=1;rounded=0;" edge="1" parent="1" source="TdxI0WIAlk2yPbmJBlpO-5" target="TdxI0WIAlk2yPbmJBlpO-5">
          <mxGeometry relative="1" as="geometry">
            <Array as="points">
              <mxPoint x="798" y="685" />
              <mxPoint x="798" y="715" />
            </Array>
          </mxGeometry>
        </mxCell>
        <mxCell id="TdxI0WIAlk2yPbmJBlpO-23" value="Start switching network to MSO" style="verticalAlign=bottom;endArrow=block;edgeStyle=elbowEdgeStyle;elbow=vertical;curved=0;rounded=0;" edge="1" parent="1" source="TdxI0WIAlk2yPbmJBlpO-5" target="TdxI0WIAlk2yPbmJBlpO-2">
          <mxGeometry relative="1" as="geometry">
            <Array as="points">
              <mxPoint x="435" y="808" />
            </Array>
          </mxGeometry>
        </mxCell>
        <mxCell id="TdxI0WIAlk2yPbmJBlpO-24" value="Continue listening for signal strength" style="curved=1;rounded=0;" edge="1" parent="1" source="TdxI0WIAlk2yPbmJBlpO-5" target="TdxI0WIAlk2yPbmJBlpO-5">
          <mxGeometry relative="1" as="geometry">
            <Array as="points">
              <mxPoint x="798" y="901" />
              <mxPoint x="798" y="931" />
            </Array>
          </mxGeometry>
        </mxCell>
      </root>
    </mxGraphModel>
  </diagram>
</mxfile>
